<svg id="Capa_1" enable-background="new 0 0 512.154 512.154" height="512" viewBox="0 0 512.154 512.154" width="512" xmlns="http://www.w3.org/2000/svg"><g><path d="m90.127 365.307c-3.906 3.905-3.906 10.236-.001 14.143l42.42 42.43c3.904 3.905 10.235 3.906 14.142.002 3.906-3.905 3.906-10.236.001-14.143l-42.42-42.43c-3.905-3.906-10.236-3.906-14.142-.002z"/><path d="m495.048 94.851 3.53-3.53c9.772-9.774 9.774-25.588 0-35.362l-42.42-42.419c-9.773-9.775-25.587-9.774-35.362-.001l-3.53 3.53-14.15-14.142c-3.907-3.903-10.237-3.901-14.143.004-3.904 3.906-3.902 10.238.004 14.143l14.146 14.139-28.286 28.286-14.14-14.14c-3.906-3.904-10.236-3.904-14.143 0-3.905 3.905-3.905 10.237 0 14.143l14.14 14.14-3.538 3.538c-7.229 7.226-9.089 17.821-5.588 26.794l-84.715 84.672c-23.793-20.934-57.385-29.319-88.332-21.405-28.974 7.407-49.484 27.737-56.272 55.77-2.148 8.845-10.744 14.902-20.905 14.662-40.282-.819-77.527 22.633-93.292 59.604-20.17 47.303-1.854 104.317 50.253 156.425 42.533 42.533 101.258 73.946 156.524 50.377 36.968-15.768 60.339-53.054 59.496-93.417-.213-10.165 5.818-18.76 14.666-20.902 14.247-3.452 26.426-10.27 36.197-20.263 3.86-3.949 3.79-10.28-.159-14.142-3.948-3.861-10.281-3.788-14.142.159-7.108 7.271-16.06 12.253-26.604 14.808-18.046 4.369-30.363 21.129-29.954 40.758.674 32.257-18.353 62.236-47.346 74.602-39.388 16.8-88.425-.011-134.535-46.122-46.035-46.034-62.801-95.035-45.999-134.438 12.387-29.051 42.313-48.17 74.479-47.453 19.592.424 36.376-11.901 40.758-29.944 6.832-28.217 29.115-37.866 41.789-41.107 23.761-6.074 50.434.423 69.177 16.221l-72.217 72.165c-13.957.409-27.342 6.118-37.28 16.066-21.438 21.439-21.439 56.331 0 77.783 21.444 21.443 56.337 21.444 77.786-.004 9.936-9.948 15.641-23.327 16.06-37.279l72.231-72.178c5.421 6.397 9.845 13.762 12.981 21.7 2.026 5.127 7.824 7.658 12.976 5.626 5.136-2.029 7.655-7.839 5.626-12.976-4.139-10.476-10.077-20.179-17.398-28.525l84.721-84.669c9.087 3.547 19.646 1.568 26.799-5.587l3.539-3.539 14.14 14.14c3.907 3.905 10.236 3.904 14.143 0 3.905-3.905 3.905-10.237 0-14.143l-14.14-14.14 28.286-28.286 14.139 14.146c3.902 3.904 10.235 3.91 14.143.004 3.906-3.904 3.908-10.236.004-14.143zm-288.252 259.857c-13.647 13.646-35.853 13.646-49.496.002-13.644-13.651-13.645-35.857.001-49.504 13.532-13.546 35.714-13.777 49.499.008 13.802 13.788 13.506 35.968-.004 49.494zm25.625-46.835c-2.724-6.214-6.593-11.921-11.483-16.806-4.887-4.886-10.593-8.754-16.801-11.477.109-.109 159.625-159.528 160.089-159.991l28.287 28.287c-6.369 6.364-158.248 158.144-160.092 159.987zm252.014-230.695c-9.318 9.318-55.478 55.479-63.64 63.641-1.947 1.947-5.12 1.943-7.073-.007l-42.418-42.418c-1.95-1.953-1.953-5.126-.006-7.074 8.165-8.165 54.376-54.375 63.64-63.639 1.953-1.954 5.121-1.957 7.077 0l42.421 42.42c1.953 1.953 1.957 5.121-.001 7.077z"/><circle cx="337.636" cy="322" r="10"/></g></svg>